<svg width="176" height="176" viewBox="0 0 176 176" fill="none" xmlns="http://www.w3.org/2000/svg">
<path d="M0 24C0 10.7452 10.7452 0 24 0H152C165.255 0 176 10.7452 176 24V152C176 165.255 165.255 176 152 176H24C10.7452 176 0 165.255 0 152V24Z" fill="url(#paint0_linear_337_310)"/>
<path fill-rule="evenodd" clip-rule="evenodd" d="M85.6802 33.9483C87.131 33.165 88.8788 33.1758 90.3296 33.9591L108.206 43.6446H108.195C110.132 44.6926 110.132 47.4755 108.195 48.5235L90.563 58.0821C88.9852 58.9394 87.9996 60.5904 87.9995 62.3897V82.9669L88.0103 82.9561L87.9995 82.9825C88.004 83.1917 88.09 85.451 89.7153 86.2481C91.0073 86.8832 92.6382 85.7823 92.6382 85.7823V85.7931L111.35 75.6534L111.339 75.6632C112.186 75.2081 113.214 75.2083 114.061 75.6632L135.909 87.4972C136.83 87.9946 137.402 88.9582 137.402 90.0059V115.452C137.402 116.5 136.83 116.405 135.909 116.902L116.92 127.191C116.657 127.335 116.385 127.451 116.113 127.541L108.481 131.891L89.2495 142.316C88.4765 142.74 87.5439 142.74 86.7603 142.316L67.5298 131.891L58.729 127.297L58.7349 127.294L41.2876 118.501C39.6357 117.675 38.5981 115.981 38.5981 114.129V91.213C38.5981 89.4136 39.5828 87.7618 41.1606 86.9044L60.7417 76.3097C62.3196 75.4523 63.3042 73.8005 63.3042 72.0011V48.8731C63.3042 47.0632 64.2998 45.4122 65.8882 44.5548L85.6802 33.9483ZM89.2173 89.254C87.5681 88.7974 85.6955 89.5707 85.4702 89.6681C85.4589 89.6743 85.4484 89.6824 85.437 89.6886L65.8667 100.295C64.2891 101.152 63.3042 102.803 63.3042 104.603V125.688C63.3042 125.838 63.2896 125.984 63.2642 126.124C63.2652 126.661 63.444 127.567 64.5327 128.101C65.3946 128.518 66.3513 128.101 66.9468 127.732C67.1141 127.57 67.3088 127.426 67.5298 127.307L86.7603 116.881C87.5333 116.458 88.4659 116.458 89.2495 116.881L108.48 127.308H108.481C111.423 127.588 112.408 125.563 112.706 124.624V103.386C112.706 102.338 112.134 101.375 111.212 100.877L92.6382 90.8106C92.525 90.7492 92.4192 90.6807 92.3188 90.6085C91.753 90.2807 90.5109 89.6123 89.2173 89.254Z" fill="#1B1B1B"/>
<defs>
<linearGradient id="paint0_linear_337_310" x1="179.177" y1="-54.654" x2="22.4367" y2="188.461" gradientUnits="userSpaceOnUse">
<stop offset="0.122322" stop-color="#B4F372"/>
<stop offset="0.583527" stop-color="#EEFB63"/>
<stop offset="1" stop-color="#BC9AFF"/>
</linearGradient>
</defs>
</svg>
